HIERARCHY
ROOT Hips
{
	OFFSET 0.000000 0.000000 0.000000
	CHANNELS 6 Xposition Yposition Zposition Zrotation Yrotation Xrotation 
	JOINT LeftUpLeg_virtual
	{
		OFFSET 0.000000 0.000000 0.000000
		CHANNELS 3 Zrotation Yrotation Xrotation
		JOINT LeftUpLeg
		{
			OFFSET 10.205400 -3.823500 0.155100
			CHANNELS 3 Zrotation Yrotation Xrotation
			JOINT LeftLeg
			{
				OFFSET 0.708757 -12.982077 0.567790
				CHANNELS 3 Zrotation Yrotation Xrotation
				JOINT LeftFoot
				{
					OFFSET -0.708756 -10.717838 -2.184338
					CHANNELS 3 Zrotation Yrotation Xrotation
					JOINT LeftToeBase
					{
						OFFSET 0.108149 -7.191104 7.560241
						CHANNELS 3 Zrotation Yrotation Xrotation
						End Site
						{
							OFFSET 0.000000 0.000000 0.000000
						}
					}
				}
			}
		}
	}
	JOINT RightUpLeg_virtual
	{
		OFFSET 0.000000 0.000000 0.000000
		CHANNELS 3 Zrotation Yrotation Xrotation
		JOINT RightUpLeg
		{
			OFFSET -10.205400 -3.823500 0.005500
			CHANNELS 3 Zrotation Yrotation Xrotation
			JOINT RightLeg
			{
				OFFSET -0.708756 -12.982134 0.610632
				CHANNELS 3 Zrotation Yrotation Xrotation
				JOINT RightFoot
				{
					OFFSET 0.708754 -10.717769 -1.945823
					CHANNELS 3 Zrotation Yrotation Xrotation
					JOINT RightToeBase
					{
						OFFSET -0.108140 -7.191069 7.372968
						CHANNELS 3 Zrotation Yrotation Xrotation
						End Site
						{
							OFFSET 0.000000 0.000000 0.000000
						}
					}
				}
			}
		}
	}
	JOINT Spine_virtual
	{
		OFFSET 0.000000 0.000000 0.000000
		CHANNELS 3 Zrotation Yrotation Xrotation
		JOINT Spine
		{
			OFFSET 0.000000 6.876099 0.125700
			CHANNELS 3 Zrotation Yrotation Xrotation
			JOINT Spine1
			{
				OFFSET 0.000000 8.022060 0.146608
				CHANNELS 3 Zrotation Yrotation Xrotation
				JOINT Spine2
				{
					OFFSET 0.000000 9.168068 0.167552
					CHANNELS 3 Zrotation Yrotation Xrotation
					JOINT Neck_virtual
					{
						OFFSET 0.000000 0.000000 0.000000
						CHANNELS 3 Zrotation Yrotation Xrotation
						JOINT Neck
						{
							OFFSET 0.000000 10.314075 0.188496
							CHANNELS 3 Zrotation Yrotation Xrotation
							JOINT Head
							{
								OFFSET 0.000000 7.643700 -2.377400
								CHANNELS 3 Zrotation Yrotation Xrotation
								End Site
								{
									OFFSET 0.000000 0.000000 0.000000
								}
							}
						}
					}
					JOINT LeftShoulder_virtual
					{
						OFFSET 0.000000 0.000000 0.000000
						CHANNELS 3 Zrotation Yrotation Xrotation
						JOINT LeftShoulder
						{
							OFFSET 4.392200 8.824978 0.174984
							CHANNELS 3 Zrotation Yrotation Xrotation
							JOINT LeftArm
							{
								OFFSET 8.771219 -2.981674 -0.026999
								CHANNELS 3 Zrotation Yrotation Xrotation
								JOINT LeftForeArm
								{
									OFFSET 8.512804 0.000000 -0.000000
									CHANNELS 3 Zrotation Yrotation Xrotation
									JOINT LeftHand
									{
										OFFSET 18.484802 0.000000 -0.000000
										CHANNELS 3 Zrotation Yrotation Xrotation
										End Site
										{
											OFFSET 0.000000 0.000000 0.000000
										}
									}
								}
							}
						}
					}
					JOINT RightShoulder_virtual
					{
						OFFSET 0.000000 0.000000 0.000000
						CHANNELS 3 Zrotation Yrotation Xrotation
						JOINT RightShoulder
						{
							OFFSET -4.392200 8.824993 0.141379
							CHANNELS 3 Zrotation Yrotation Xrotation
							JOINT RightArm
							{
								OFFSET -8.771282 -2.981682 -0.094208
								CHANNELS 3 Zrotation Yrotation Xrotation
								JOINT RightForeArm
								{
									OFFSET -8.494598 0.000000 0.000000
									CHANNELS 3 Zrotation Yrotation Xrotation
									JOINT RightHand
									{
										OFFSET -18.483803 0.000000 0.000001
										CHANNELS 3 Zrotation Yrotation Xrotation
										End Site
										{
											OFFSET 0.000000 0.000000 0.000000
										}
									}
								}
							}
						}
					}
				}
			}
		}
	}
}
MOTION
Frames: 7
Frame Time: 0.033333
22.985689 35.714409 12.455514 -179.934722 15.969264 179.834892 -3.998664 2.169519 4.144829 -9.944822 -4.855050 -18.205804 12.861551 7.721849 24.633467 -0.255210 3.781310 5.844270 0.000000 0.000000 0.000000 0.825315 3.332025 2.971264 -2.930064 2.445048 -26.970423 -7.491994 2.195209 18.732426 9.077619 6.861112 17.404425 0.000000 0.000000 0.000000 -1.814739 4.406077 -9.194962 3.147231 -1.043560 -2.666565 -1.524454 -1.301604 10.685140 0.002428 -0.048625 0.021332 -1.953920 1.081703 13.397770 1.523219 -1.057894 12.538308 0.000000 0.000000 0.000000 -0.338108 1.224106 10.619961 -7.543263 -15.963598 0.935304 -44.672408 -11.272389 19.385453 -137.687816 -82.348346 150.253834 0.000000 0.000000 0.000000 -4.472459 2.952574 9.941181 24.178986 5.050226 -4.652129 50.955735 -8.539162 8.183307 -150.923138 85.667129 -158.482450 0.000000 0.000000 0.000000 
23.322159 35.667419 12.166306 -179.995415 14.910238 179.895394 -3.676140 2.212369 4.274732 -9.693189 -5.314654 -17.803518 12.686416 7.627627 24.723454 -0.959035 3.678447 5.064774 0.000000 0.000000 0.000000 1.144438 3.639775 3.045125 -3.309083 3.027926 -27.218463 -7.486496 2.353031 17.675666 9.219698 6.873732 17.515481 0.000000 0.000000 0.000000 -1.567099 4.506297 -9.069154 3.245117 -1.409324 -2.822906 -1.392638 -1.364121 10.553476 -0.073924 -0.070984 0.002419 -1.835157 1.004842 13.303828 1.316299 -1.351545 12.117686 0.000000 0.000000 0.000000 -0.127849 1.274737 10.547275 -7.792926 -16.230580 1.058650 -43.354479 -11.831261 20.320670 -130.968741 -83.383311 142.759532 0.000000 0.000000 0.000000 -4.272690 3.012693 10.016166 24.170586 5.132568 -4.705132 48.704371 -10.203036 6.585215 -123.395208 87.268917 -130.506665 0.000000 0.000000 0.000000 
23.752403 35.622608 11.790769 179.923111 13.780373 179.904710 -3.470728 2.071133 4.511976 -9.124334 -5.835963 -17.579210 12.517140 7.422400 25.503445 -1.657546 3.431491 4.100446 0.000000 0.000000 0.000000 1.159410 3.857218 3.325487 -3.062922 3.291098 -26.877223 -7.538744 2.179394 17.517531 9.035631 6.405306 17.020037 0.000000 0.000000 0.000000 -1.394408 4.649892 -8.923303 3.301235 -1.758386 -2.929084 -1.313790 -1.358555 10.397109 0.028215 -0.028565 -0.001972 -1.761055 0.965464 13.286535 1.141655 -1.674444 11.728502 0.000000 0.000000 0.000000 -0.039059 1.179222 10.637015 -7.947119 -16.537672 0.901445 -42.007228 -11.431465 21.457316 -114.991043 -84.493272 126.048655 0.000000 0.000000 0.000000 -4.214105 2.933984 10.069709 23.967834 4.878899 -4.775167 46.174558 -13.822104 6.590139 -64.594178 87.489860 -71.089565 0.000000 0.000000 0.000000 
24.272882 35.597744 11.355375 179.860669 12.917300 -179.968081 -3.200721 1.918584 4.732138 -8.393652 -6.293565 -17.188530 12.293417 7.385326 26.044879 -2.390854 2.994766 3.291551 0.000000 0.000000 0.000000 1.051141 4.327684 3.533198 -2.166149 3.022466 -26.236770 -7.492852 1.970190 18.417533 8.331667 5.640111 15.273693 0.000000 0.000000 0.000000 -1.249247 4.744034 -8.930440 3.360526 -2.125929 -3.056265 -1.270269 -1.346186 10.382371 0.008157 0.014490 0.025924 -1.759364 0.955142 13.303595 1.025966 -2.014456 11.276467 0.000000 0.000000 0.000000 -0.029303 1.209239 10.644823 -8.027443 -16.638496 0.907599 -40.651278 -10.166144 23.035807 -85.931778 -85.385520 96.319321 0.000000 0.000000 0.000000 -4.126196 2.991693 10.233698 23.620102 4.544062 -4.757033 43.542234 -19.070928 9.043085 -35.332579 85.795365 -41.095329 0.000000 0.000000 0.000000 
24.878090 35.593803 10.881241 179.735253 11.962533 -179.986973 -2.974944 1.621555 5.184365 -7.405003 -6.746172 -16.723020 11.841837 7.093619 26.151066 -3.073338 2.510234 3.218653 0.000000 0.000000 0.000000 0.980930 4.379353 3.696670 -1.318785 3.192092 -25.471992 -7.550673 0.623793 20.427988 7.186439 5.181850 12.505780 0.000000 0.000000 0.000000 -1.189644 4.777372 -8.895628 3.414518 -2.566872 -3.098083 -1.245157 -1.363171 10.467362 0.042625 0.016885 0.016116 -1.761788 0.947016 13.342290 1.006107 -2.351312 10.884222 0.000000 0.000000 0.000000 -0.057728 1.178738 10.690597 -7.970424 -16.693971 0.872808 -39.525711 -8.061440 24.996351 -49.773026 -84.326356 59.577432 0.000000 0.000000 0.000000 -4.133098 2.996201 10.416083 23.208938 4.011922 -4.661295 40.786717 -25.384560 13.776925 -24.751899 84.244250 -29.694780 0.000000 0.000000 0.000000 
25.534988 35.605579 10.386504 179.807189 11.426976 -179.687742 -2.651489 1.784013 5.552087 -6.079382 -7.334559 -16.414925 11.173506 6.769784 26.142148 -3.722500 2.035896 3.576163 0.000000 0.000000 0.000000 0.875846 5.155017 4.075061 -2.468495 7.202901 -24.882883 -7.834015 5.334348 19.462528 10.132642 7.817899 12.995814 0.000000 0.000000 0.000000 -1.019095 4.984199 -9.012656 3.587156 -3.008840 -3.255229 -1.201462 -1.334201 10.533001 0.062665 0.110706 0.101494 -1.797962 1.004566 13.517618 1.016373 -2.729583 10.554872 0.000000 0.000000 0.000000 -0.073951 1.218577 10.922518 -7.824168 -16.769716 0.800781 -38.713891 -5.322585 27.111831 -28.133872 -81.334965 37.479345 0.000000 0.000000 0.000000 -4.162678 3.011139 10.588436 22.762808 3.292882 -4.506161 37.632283 -31.794995 20.398104 -22.854231 83.230008 -26.964253 0.000000 0.000000 0.000000 
26.224606 35.630836 9.894503 179.884507 10.660939 -179.535989 -2.418715 1.998593 5.873824 -4.402896 -8.351307 -16.244102 10.456999 6.106611 26.139294 -4.381100 1.558916 4.048895 0.000000 0.000000 0.000000 0.564928 5.968606 4.428239 -2.239219 8.611711 -24.013700 -7.556612 6.354992 19.657062 10.803555 8.853880 11.775126 0.000000 0.000000 0.000000 -0.889786 5.233810 -8.990399 3.814055 -3.593109 -3.278876 -1.173017 -1.424717 10.642248 0.000727 0.083802 0.115760 -1.798311 0.953042 13.631495 1.031102 -3.123519 10.203059 0.000000 0.000000 0.000000 -0.076346 1.171289 11.176642 -7.707395 -16.683161 0.778671 -38.227561 -1.857540 28.737287 -17.205943 -77.314005 26.209876 0.000000 0.000000 0.000000 -4.216823 3.051863 10.919427 22.292143 2.566258 -4.415900 34.367637 -37.594399 27.720143 -21.458807 82.743794 -24.797389 0.000000 0.000000 0.000000 
